<svg xmlns="http://www.w3.org/2000/svg" viewBox="0 0 80 48" role="img" aria-labelledby="title">
  <title id="title">Tailwind CSS</title>
  <path fill="#38bdf8" d="M40.813 12.48c-7.467 0-12.133 3.733-14 11.2 2.8-3.733 6.067-5.133 9.8-4.2 2.13.533 3.652 2.078 5.337 3.79 2.744 2.786 5.919 6.01 12.862 6.01 7.467 0 12.133-3.733 14-11.2-2.8 3.733-6.067 5.133-9.8 4.2-2.13-.533-3.652-2.078-5.337-3.79-2.744-2.786-5.919-6.01-12.862-6.01ZM26.813 29.28c-7.467 0-12.133 3.733-14 11.2 2.8-3.733 6.067-5.133 9.8-4.2 2.13.533 3.652 2.078 5.337 3.79 2.744 2.786 5.919 6.01 12.862 6.01 7.467 0 12.133-3.733 14-11.2-2.8 3.733-6.067 5.133-9.8 4.2-2.13-.533-3.652-2.078-5.337-3.79-2.744-2.786-5.919-6.01-12.862-6.01Z"/>
</svg>
